<svg xmlns="http://www.w3.org/2000/svg" width="37.097" height="39.017" viewBox="0 0 37.097 39.017">
  <g id="Path_11" data-name="Path 11" transform="matrix(0.616, -0.788, 0.788, 0.616, -1.892, 24.872)" fill="#fff" opacity="0.72">
    <path d="M 15.95625019073486 22.82657241821289 C 12.08674049377441 22.82657241821289 8.453900337219238 21.28513336181641 5.726940631866455 18.48620414733887 C 4.263380527496338 16.98402404785156 3.127440452575684 15.20061302185059 2.350680589675903 13.18549346923828 C 1.544290542602539 11.0935230255127 1.166180491447449 8.85157299041748 1.226880550384521 6.521913051605225 C 1.258310556411743 5.315113067626953 1.399600505828857 4.451903343200684 1.646820545196533 3.956273317337036 C 1.837950587272644 3.573083162307739 2.019420623779297 3.541353225708008 2.203970432281494 3.541353225708008 C 3.001050472259521 3.541353225708008 4.453940391540527 4.485143184661865 5.992130756378174 5.4843430519104 C 8.84220027923584 7.335743427276611 12.38921070098877 9.639873504638672 16.48468971252441 9.639873504638672 C 16.57546043395996 9.639873504638672 16.66732978820801 9.638692855834961 16.75772094726563 9.63636302947998 C 20.95147132873535 9.528512954711914 24.70461082458496 6.983753204345703 27.72031021118164 4.938992977142334 C 29.35556030273438 3.830233097076416 30.90013122558594 2.782953262329102 31.6926097869873 2.782953262329102 C 31.85643005371094 2.782953262329102 31.91974067687988 2.833863258361816 31.96623039245605 2.88157320022583 C 32.11318969726563 3.032403230667114 32.44924926757813 3.603393316268921 32.39612197875977 5.642703056335449 C 32.15512084960938 14.89368343353271 24.95085144042969 22.60013389587402 16.33660125732422 22.8216724395752 C 16.21022987365723 22.82492256164551 16.08226013183594 22.82657241821289 15.95625019073486 22.82657241821289 Z" stroke="none"/>
    <path d="M 31.4885139465332 3.575124740600586 C 31.31448936462402 3.627874374389648 31.01662063598633 3.746353149414063 30.54261016845703 4.012123107910156 C 29.85990142822266 4.394913673400879 29.02553939819336 4.960622787475586 28.1422004699707 5.559543609619141 C 25.20861053466797 7.548553466796875 21.19092178344727 10.27260303497314 16.77699089050293 10.38611316680908 C 16.6800708770752 10.38861274719238 16.58172035217285 10.38987350463867 16.48468971252441 10.38987350463867 C 12.16699981689453 10.38987350463867 8.361921310424805 7.918103218078613 5.583560943603516 6.113293647766113 C 4.754480361938477 5.574723243713379 3.971370697021484 5.066013336181641 3.325559616088867 4.72247314453125 C 2.769416809082031 4.426626205444336 2.462350845336914 4.332571983337402 2.310602188110352 4.303647994995117 C 2.210906982421875 4.5086669921875 2.014394760131836 5.091353416442871 1.976619720458984 6.54144287109375 C 1.918519973754883 8.77181339263916 2.279821395874023 10.91644287109375 3.050491333007813 12.91574287414551 C 3.790559768676758 14.83565330505371 4.871780395507813 16.53373336791992 6.264141082763672 17.96283340454102 C 8.848711013793945 20.61562347412109 12.290771484375 22.07657241821289 15.95625114440918 22.07657241821289 C 16.07586097717285 22.07657241821289 16.19733047485352 22.07500267028809 16.31731986999512 22.07192230224609 C 24.53902053833008 21.86048316955566 31.41559982299805 14.48160362243652 31.64638137817383 5.623163223266602 C 31.67753601074219 4.427309989929199 31.56893539428711 3.840313911437988 31.4885139465332 3.575124740600586 M 31.6926155090332 2.032955169677734 C 32.68580627441406 2.032552719116211 33.21522903442383 2.999885559082031 33.14587020874023 5.662233352661133 C 32.89424133300781 15.32120323181152 25.37710952758789 23.33942413330078 16.35588073730469 23.5714225769043 C 16.22263336181641 23.57485008239746 16.08864593505859 23.57656860351563 15.95624923706055 23.57656860351563 C 7.125097274780273 23.57656860351563 0.229217529296875 16.01868438720703 0.4771308898925781 6.502383232116699 C 0.5483627319335938 3.768112182617188 1.159736633300781 2.791355133056641 2.20396614074707 2.791355133056641 C 4.813869476318359 2.791355133056641 10.12932777404785 8.88986873626709 16.48468589782715 8.88986873626709 C 16.56911849975586 8.88986873626709 16.65364646911621 8.8887939453125 16.73844146728516 8.886612892150879 C 23.27310562133789 8.718560218811035 29.0825138092041 2.034011840820313 31.6926155090332 2.032955169677734 Z" stroke="none"/>
  </g>
</svg>
